<?xml version="1.0" encoding="UTF-8"?>
<svg version="1.1" xmlns="http://www.w3.org/2000/svg" width="567" height="693">
<path d="M0 0 C11.36685203 7.58396368 21.93965846 17.17424771 28.00390625 29.56640625 C29.55764488 38.02564992 29.15259215 45.22568628 24.56640625 52.62890625 C19.60034785 59.79478362 12.86373662 64.86312946 4.56640625 67.62890625 C2.25558091 67.72626444 -0.05822333 67.75867998 -2.37109375 67.75390625 C-3.03842529 67.75487305 -3.70575684 67.75583984 -4.39331055 67.75683594 C-9.45805479 67.73027154 -14.36349889 67.2635404 -19.359375 66.45703125 C-28.28076765 66.95581305 -34.54267399 71.83879377 -40.62109375 77.94140625 C-41.28044922 78.58013672 -41.93980469 79.21886719 -42.61914062 79.87695312 C-44.57412069 81.77800271 -46.50467046 83.70146598 -48.43359375 85.62890625 C-49.07522461 86.25587402 -49.71685547 86.8828418 -50.37792969 87.52880859 C-50.99313477 88.13289551 -51.60833984 88.73698242 -52.2421875 89.359375 C-52.7880249 89.89328857 -53.3338623 90.42720215 -53.89624023 90.97729492 C-58.39196678 95.80714883 -61.43359375 100.89630142 -61.43359375 107.62890625 C-58.38988745 118.09164665 -48.64595536 125.45327407 -41.14355469 132.85546875 C-36.00629781 137.92713159 -30.87940921 143.00914447 -25.75822067 148.09703064 C-22.67141596 151.16303215 -19.58100757 154.22520532 -16.48193359 157.27880859 C-13.46507315 160.25171365 -10.45853666 163.23472781 -7.45844269 166.22454834 C-6.32510831 167.350592 -5.1883088 168.47316108 -4.04772186 169.59185791 C12.15781336 185.49869198 23.13282008 202.6341883 24.00390625 226.06640625 C23.50407357 243.75613678 16.23384123 258.57932897 4.56640625 271.62890625 C4.11491211 272.13534668 3.66341797 272.64178711 3.19824219 273.16357422 C-2.4250874 279.44199271 -8.2423867 285.52615399 -14.18359375 291.50390625 C-14.68987305 292.0148584 -15.19615234 292.52581055 -15.71777344 293.05224609 C-18.40454 295.7277383 -21.15537494 298.26504977 -24.04296875 300.72265625 C-27.66693423 303.86014281 -31.04313971 307.19101848 -34.40234375 310.60546875 C-34.93160461 311.14259491 -35.46086548 311.67972107 -36.00616455 312.23312378 C-38.2053938 314.46878542 -40.40171555 316.70711851 -42.58837891 318.95507812 C-59.61955399 336.43590452 -59.61955399 336.43590452 -72.68359375 337.00390625 C-84.30418687 336.6745777 -90.88750543 330.95377255 -98.86184692 323.12162781 C-100.51510416 321.55149407 -102.22820432 320.07865211 -103.96435547 318.60083008 C-108.70326295 314.46789554 -113.12882741 310.04812846 -117.55392456 305.58374023 C-119.03291284 304.09176382 -120.51519877 302.60313072 -121.99829102 301.11523438 C-125.67806762 297.42222471 -129.35232002 293.72373513 -133.0267334 290.02539062 C-136.14405004 286.88820321 -139.26350463 283.75317023 -142.38571167 280.62084961 C-143.83224444 279.16792717 -145.27568542 277.71198344 -146.71899414 276.25585938 C-151.24814743 271.70998131 -155.81220891 267.28834224 -160.70703125 263.13624573 C-163.78376279 260.45016925 -166.58755144 257.49225544 -169.43359375 254.56640625 C-178.88628326 244.45359033 -178.88628326 244.45359033 -191.55859375 240.19140625 C-199.21462203 240.3152902 -204.34864828 245.43746105 -209.68359375 250.44140625 C-224.17222688 265.58746426 -236.72034224 283.95719991 -241.43359375 304.62890625 C-241.69197021 305.7113562 -241.69197021 305.7113562 -241.95556641 306.81567383 C-247.20258314 330.37118127 -242.78200566 355.12396544 -229.90136719 375.43457031 C-215.31678919 397.58399425 -194.43971854 411.81151636 -168.5234375 417.23828125 C-143.83399761 420.3595758 -122.48459565 412.90813119 -102.87304688 398.10546875 C-99.08023983 395.13996524 -95.67386364 391.94383581 -92.318573 388.495224 C-90.5587736 386.7528468 -88.7470843 385.14936014 -86.85888672 383.54858398 C-81.6931226 379.05637212 -76.90664241 374.20799994 -72.08984375 369.34765625 C-71.11182956 368.36522247 -70.13351124 367.38309137 -69.15490723 366.40124512 C-66.0782798 363.31330054 -63.00562939 360.22141811 -59.93359375 357.12890625 C-56.36805472 353.53960162 -52.80081447 349.95202117 -49.22929382 346.3686676 C-47.81600746 344.94899468 -46.40582264 343.52623626 -44.99572754 342.10339355 C-40.57846321 337.66944418 -36.10514216 333.40227676 -31.35632324 329.32678223 C-27.84067553 326.22227178 -24.57287559 322.86980081 -21.27734375 319.53515625 C-20.15749084 318.40962341 -20.15749084 318.40962341 -19.01501465 317.26135254 C-16.6520735 314.88630705 -14.29242005 312.50803808 -11.93359375 310.12890625 C-8.82198729 306.99051408 -5.7069562 303.8555788 -2.58984375 300.72265625 C-1.54105042 299.66141541 -1.54105042 299.66141541 -0.47106934 298.57873535 C3.50718138 294.58099622 7.5874781 290.77525299 11.87236023 287.10716248 C14.00161709 285.24913314 15.94058541 283.24625941 17.87890625 281.19140625 C27.20676441 271.78327392 37.79052393 264.29167793 51.25390625 263.37890625 C61.13567592 263.5646538 69.55910534 267.84139145 76.61328125 274.5859375 C80.62530354 278.92124258 83.38228793 282.59364647 83.66015625 288.68359375 C83.21225986 299.47043188 74.75523157 306.87742029 67.51171875 314.01171875 C66.65134003 314.8702243 65.7909613 315.72872986 64.9045105 316.61325073 C63.09431348 318.41676177 61.28054043 320.21668998 59.46337891 322.01318359 C56.69955547 324.7458489 53.94654392 327.48903803 51.1953125 330.234375 C49.42640181 331.9941136 47.6568904 333.75324859 45.88671875 335.51171875 C45.07188019 336.32230743 44.25704163 337.13289612 43.41751099 337.9680481 C39.88637875 341.45573398 36.33912565 344.87396415 32.57568359 348.11083984 C27.84887693 352.18668821 23.48699604 356.601955 19.09765625 361.03515625 C18.21791138 361.91868774 17.3381665 362.80221924 16.4317627 363.71252441 C13.64086119 366.51555758 10.85311393 369.32170541 8.06640625 372.12890625 C4.39241887 375.82991175 0.71475023 379.52722447 -2.96484375 383.22265625 C-4.2105011 384.48076111 -4.2105011 384.48076111 -5.48132324 385.76428223 C-9.76701661 390.06779553 -14.12945546 394.19623715 -18.73522949 398.15539551 C-20.72187692 399.87902241 -22.59264441 401.68847356 -24.43359375 403.56640625 C-25.09359375 404.23414063 -25.75359375 404.901875 -26.43359375 405.58984375 C-27.09359375 406.26273437 -27.75359375 406.935625 -28.43359375 407.62890625 C-33.03755901 412.32279271 -37.71375168 416.81904134 -42.69677734 421.11035156 C-44.6501454 422.81824435 -46.46047097 424.62210238 -48.24609375 426.50390625 C-52.12333415 430.43415579 -56.28457473 433.897592 -60.59375 437.34375 C-62.43786523 438.82766666 -64.25997089 440.3395167 -66.0546875 441.8828125 C-94.47907499 466.16813614 -130.20135078 474.83655314 -166.984375 472.34765625 C-201.44186442 469.48625204 -232.47826823 454.21306004 -257.43359375 430.62890625 C-258.74263672 429.43394531 -258.74263672 429.43394531 -260.078125 428.21484375 C-285.64150572 404.00460335 -300.55283102 367.65827751 -301.63671875 332.640625 C-302.27120211 289.45938459 -285.87914959 252.92946383 -255.92578125 222.04296875 C-254.51791202 220.6446444 -253.09973491 219.25648205 -251.6640625 217.88671875 C-249.83558211 216.03582266 -248.15778941 214.16166498 -246.46875 212.1875 C-241.67584765 206.66967997 -236.54941982 201.485541 -231.40136719 196.30151367 C-230.25882581 195.14744295 -229.12076658 193.98891706 -227.98730469 192.82592773 C-217.74877923 182.32210175 -206.9461374 171.90818281 -191.43359375 171.62890625 C-180.36724706 172.50103515 -171.90775876 179.5312622 -164.46459961 187.20727539 C-163.73632462 187.94139145 -163.00804962 188.67550751 -162.25770569 189.43186951 C-160.69278327 191.01190178 -159.1324941 192.59653431 -157.5764904 194.18535042 C-155.10867052 196.70465919 -152.62818956 199.21087657 -150.1441803 201.71421814 C-144.87511939 207.02877629 -139.62197551 212.35889399 -134.37109375 217.69140625 C-128.27874915 223.87839354 -122.17992486 230.05869532 -116.06393623 236.22231865 C-113.62896091 238.68308342 -111.2064194 241.15564408 -108.78416443 243.62892151 C-107.28110657 245.14651855 -105.77747915 246.66355176 -104.27319336 248.17993164 C-103.61060516 248.86318512 -102.94801697 249.5464386 -102.26535034 250.25039673 C-97.87052036 254.64717097 -93.25589565 258.29772187 -87.43359375 260.62890625 C-83.58299008 260.83260742 -83.58299008 260.83260742 -80.43359375 259.62890625 C-78.10447476 256.76971601 -78.10447476 256.76971601 -78.55859375 253.31640625 C-80.28893195 246.02426669 -85.21964698 241.64773651 -90.43359375 236.62890625 C-94.1111648 232.96288643 -97.77259868 229.28079931 -101.43611145 225.60073853 C-104.68205395 222.34136995 -107.93067951 219.08468114 -111.17944336 215.828125 C-112.88607586 214.1164601 -114.59181025 212.40389924 -116.29663086 210.69042969 C-118.77347902 208.20137087 -121.25361447 205.71562754 -123.734375 203.23046875 C-124.48672928 202.47295319 -125.23908356 201.71543762 -126.01423645 200.93496704 C-130.09461861 196.85415921 -134.26735817 192.95600736 -138.6388092 189.18893433 C-142.9416807 185.44887519 -146.94499817 181.38662821 -150.99609375 177.37890625 C-151.90294922 176.50105469 -152.80980469 175.62320313 -153.74414062 174.71875 C-161.87157247 166.66793643 -169.48151978 158.31938511 -169.74609375 146.44140625 C-169.67891297 139.73079255 -168.63943172 135.05432216 -164.0078125 130.10546875 C-158.08952963 124.81418743 -152.45518262 124.09681998 -144.76953125 124.26953125 C-129.6282186 125.90067969 -117.54002724 142.38075852 -107.35873032 152.65917015 C-105.43402962 154.60162712 -103.50549497 156.54020688 -101.57595825 158.4778595 C-96.09977752 163.97818601 -90.62948402 169.48434029 -85.16357422 174.99487305 C-81.79539781 178.39001565 -78.42221326 181.78011768 -75.04602432 185.16729164 C-73.774026 186.4454371 -72.50391922 187.72546826 -71.23586655 189.00752831 C-58.33137801 203.767167 -58.33137801 203.767167 -41.37109375 211.06640625 C-37.43103147 211.02773531 -37.43103147 211.02773531 -35.30859375 208.62890625 C-34.0788621 204.41268345 -34.50615764 201.47706267 -36.43359375 197.62890625 C-38.4404937 195.03683218 -40.57632012 192.67532654 -42.8515625 190.31640625 C-44.85155756 188.23471699 -46.73619151 186.13355549 -48.61328125 183.9453125 C-52.97585895 178.92908358 -57.66155812 174.25474367 -62.37109375 169.56640625 C-63.22638672 168.70724609 -64.08167969 167.84808594 -64.96289062 166.96289062 C-65.80787109 166.11919922 -66.65285156 165.27550781 -67.5234375 164.40625 C-68.65060181 163.28077759 -68.65060181 163.28077759 -69.80053711 162.13256836 C-71.89319672 160.14274692 -74.01292373 158.24515339 -76.19677734 156.35913086 C-80.67871016 152.46292358 -84.91388005 148.34547794 -89.1328125 144.16796875 C-89.93088821 143.37796478 -90.72896393 142.58796082 -91.55122375 141.77401733 C-93.22579551 140.11318627 -94.89888677 138.45086123 -96.57055664 136.78710938 C-98.27183417 135.09739408 -99.97758003 133.41216591 -101.68774414 131.73144531 C-104.17937526 129.28260437 -106.65737733 126.82066818 -109.1328125 124.35546875 C-109.89123947 123.61454987 -110.64966644 122.87363098 -111.43107605 122.11026001 C-118.07020237 115.44395196 -123.4835147 108.20551118 -123.74609375 98.50390625 C-123.49993246 82.89317774 -109.81254602 72.83746504 -99.51293945 62.57788086 C-97.86617971 60.93650829 -96.2248728 59.28981806 -94.58398438 57.64257812 C-93.51203936 56.57129368 -92.43978432 55.50031934 -91.3671875 54.4296875 C-90.88986679 53.95034256 -90.41254608 53.47099762 -89.92076111 52.97712708 C-87.22289363 50.2973202 -84.44942008 47.75442495 -81.56811523 45.2722168 C-77.28477564 41.55678444 -73.31344547 37.5843478 -69.34765625 33.53515625 C-67.82451388 31.99449984 -66.30106698 30.45414444 -64.77734375 28.9140625 C-62.41554336 26.52136646 -60.05616516 24.12642985 -57.70214844 21.72607422 C-55.4034247 19.38463933 -53.09503306 17.05308239 -50.78515625 14.72265625 C-49.75184677 13.66141541 -49.75184677 13.66141541 -48.69766235 12.57873535 C-35.23945067 -0.94843506 -18.26591634 -10.29107004 0 0 Z " fill="#FFFFFF" transform="translate(302.43359375,6.37109375)"/>
<path d="M0 0 C10.22113848 5.75189558 16.70814407 14.19032557 20 25.4375 C20.31884766 28.53588867 20.31884766 28.53588867 20.4140625 31.85546875 C20.45273437 33.09401611 20.49140625 34.33256348 20.53125 35.60864258 C20.56296972 36.94741734 20.59420602 38.28620363 20.625 39.625 C20.66372974 41.03475853 20.70279767 42.44450781 20.7421875 43.85424805 C20.96125099 52.15402495 21.04023648 60.44720301 21 68.75 C20.94064698 81.29030492 21.1013025 93.82531347 21.31738281 106.36361694 C21.35564788 108.65410983 21.39050506 110.94466231 21.421875 113.23526001 C21.46716215 116.47738953 21.52496968 119.71906964 21.5859375 122.9609375 C21.60326431 124.43422264 21.60326431 124.43422264 21.62094116 125.93727112 C21.70385901 132.43442094 21.70385901 132.43442094 24 138.4375 C27.27444544 140.07472272 29.35121676 139.90083755 33 139.4375 C39.64415934 135.28944525 45.1401448 129.52477475 50.5625 123.9375 C55.3151341 119.06724801 60.10913201 114.36325779 65.27416992 109.92919922 C66.60787469 108.77642851 67.90264945 107.57852713 69.1796875 106.36328125 C74.76947117 101.04397099 81.20042957 97.37512861 89.0625 97 C98.861898 98.088822 106.39333469 101.93760329 112.79296875 109.578125 C118.19355044 117.20561322 120.87845718 124.35822173 119.625 133.74609375 C116.63727509 146.61198412 104.34044069 156.24632169 95.38452148 165.21411133 C94.46946838 166.13412933 93.55441528 167.05414734 92.6116333 168.00204468 C90.13277546 170.49385011 87.65074259 172.98246716 85.16764331 175.47004533 C83.61142877 177.02921458 82.05579292 178.58895904 80.50032234 180.14887047 C75.61816555 185.04464479 70.73405363 189.93845582 65.84702629 194.82936841 C60.23199545 200.44889043 54.62359009 206.0749169 49.02077621 211.70661908 C44.66743972 216.08161227 40.3083163 220.45078452 35.94480568 224.81563014 C33.347687 227.41379236 30.75301066 230.01428225 28.16436577 232.62088966 C25.2799361 235.52495235 22.38358796 238.41684325 19.48608398 241.30786133 C18.64066544 242.16249466 17.79524689 243.01712799 16.92420959 243.8976593 C9.69642267 251.07496227 2.27300146 257.31046361 -8.3125 257.75 C-24.77988027 257.25349607 -35.27901146 243.42460615 -46.03515625 232.5625 C-47.48234869 231.10902412 -48.93006621 229.65607087 -50.37828064 228.20361328 C-54.17207168 224.39658933 -57.96024044 220.58402516 -61.74676514 216.76977539 C-67.80799651 210.66525065 -73.87604158 204.56751837 -79.94741631 198.4730835 C-82.05463588 196.35572731 -84.15836068 194.23494568 -86.26173401 192.11376953 C-94.62385288 183.68880047 -94.62385288 183.68880047 -103.45014954 175.75680542 C-105.63326097 173.89843856 -107.66325817 171.90383029 -109.69140625 169.87890625 C-110.49126953 169.08033203 -111.29113281 168.28175781 -112.11523438 167.45898438 C-113.32663086 166.24178711 -113.32663086 166.24178711 -114.5625 165 C-115.37396484 164.19240234 -116.18542969 163.38480469 -117.02148438 162.55273438 C-130.20457074 149.34836781 -130.20457074 149.34836781 -134.375 142.125 C-134.85710937 141.30386719 -135.33921875 140.48273438 -135.8359375 139.63671875 C-138.75924542 134.11382492 -138.74285902 128.53751545 -138 122.4375 C-134.68109779 112.69415137 -129.19220722 105.61471136 -120.3125 100.5 C-113.84172712 97.5301316 -107.46993233 97.33631732 -100.58984375 99.03125 C-88.31255667 103.70831174 -78.63611664 116.71555472 -69.58447266 125.94897461 C-67.96181876 127.60196072 -66.33288381 129.24855398 -64.703125 130.89453125 C-64.21861877 131.3924971 -63.73411255 131.89046295 -63.23492432 132.40351868 C-58.56045823 137.11174759 -53.88212139 141.28788867 -47 141.4375 C-44.60740249 140.042203 -43.2737725 139.08272976 -42.18148804 136.50842285 C-40.57977657 127.273487 -40.71925687 117.99015382 -40.72560501 108.64668274 C-40.72657967 105.47538878 -40.71351877 102.30442509 -40.69662476 99.13317871 C-40.65062815 90.12413019 -40.62574972 81.11511919 -40.61914062 72.10595703 C-40.61410752 66.57530858 -40.58977426 61.04501017 -40.55381393 55.51448059 C-40.5440655 53.41911425 -40.54165668 51.3236995 -40.54698563 49.22831726 C-40.60997835 23.25261122 -40.60997835 23.25261122 -31.6875 14.1875 C-30.89859375 13.37539063 -30.1096875 12.56328125 -29.296875 11.7265625 C-28.15992188 10.59347656 -28.15992188 10.59347656 -27 9.4375 C-26.38640625 8.76460938 -25.7728125 8.09171875 -25.140625 7.3984375 C-18.20207764 -0.08118924 -9.92233996 -4.47668072 0 0 Z " fill="#FFFFFF" transform="translate(293,433.5625)"/>
<path d="M0 0 C8.19093178 3.38223956 14.36382691 9.77238928 20.45898438 15.99243164 C21.98584537 17.54807851 23.53031857 19.0843637 25.078125 20.61914062 C51.82541952 47.42113254 68.03119718 81.803822 68.32958984 119.98291016 C68.3239502 121.2260498 68.31831055 122.46918945 68.3125 123.75 C68.30686035 125.06403809 68.3012207 126.37807617 68.29541016 127.73193359 C68.1704963 137.77080246 67.45471521 147.26274246 65 157 C64.70198486 158.19278564 64.70198486 158.19278564 64.39794922 159.40966797 C54.71879282 196.88649149 30.61814864 228.29456652 -2 249 C-2.58281738 249.37946777 -3.16563477 249.75893555 -3.76611328 250.14990234 C-34.48801998 269.96557694 -73.26390383 274.13176104 -108.546875 266.73461914 C-127.84423624 262.36586206 -146.57720462 253.40183546 -162 241 C-162.98871094 240.21367187 -163.97742188 239.42734375 -164.99609375 238.6171875 C-171.49123801 233.34295767 -177.58468213 227.6631013 -183.5625 221.8125 C-184.24143311 221.15958984 -184.92036621 220.50667969 -185.61987305 219.83398438 C-190.60350911 214.86847517 -195.53836862 208.96948279 -195.625 201.5625 C-195.00897472 191.23087601 -184.79069276 182.87340583 -177.56591797 176.32470703 C-172.95882864 172.42728472 -168.52745723 170.66715665 -162.5 170.875 C-153.96343739 172.40833767 -148.09332765 178.75993648 -141.99584961 184.47143555 C-121.87912542 203.1091265 -99.69396159 215.7444226 -71.58984375 215.28125 C-48.75231754 214.31703103 -27.75439203 201.57485144 -12.21875 185.51953125 C1.63362886 169.78927709 11.04479018 149.09767776 12 128 C12.03996094 127.32453125 12.07992187 126.6490625 12.12109375 125.953125 C13.13024153 93.42294954 -5.36302039 67.16263926 -26.43359375 44.3671875 C-34.67166746 35.44890586 -34.67166746 35.44890586 -35.15625 28.8828125 C-34.77124621 19.6106378 -28.96774711 13.6962231 -22.5 7.625 C-15.40112942 1.19929818 -9.51604515 -1.3622008 0 0 Z " fill="#FFFFFF" transform="translate(498,209)"/>
<path d="M0 0 C5.83244678 3.43939968 10.54609994 8.36620284 12.96484375 14.796875 C14.85248343 23.34585473 14.08300311 31.507452 9.4375 38.9375 C2.81806867 48.82275156 -5.57464812 58.05163965 -16.5625 62.9375 C-17.531875 63.370625 -18.50125 63.80375 -19.5 64.25 C-27.82938129 66.11986111 -35.1099411 65.17105447 -42.5625 60.9375 C-48.11150288 56.84206001 -51.84934651 51.6380589 -53.5625 44.9375 C-54.75821287 35.11293137 -53.2982117 27.25715346 -47.609375 19.15625 C-36.2096963 4.64756802 -19.34008456 -8.99196005 0 0 Z " fill="#FFFFFF" transform="translate(371.5625,60.0625)"/>
<path d="M0 0 C5.77499444 3.40551998 10.59244187 8.35063076 12.95703125 14.7421875 C14.97078612 23.94324632 13.96231586 31.95291363 9.33984375 40.12109375 C6.14412375 44.85233424 2.49985409 48.93753702 -1.5625 52.9375 C-2.23539062 53.60910156 -2.90828125 54.28070313 -3.6015625 54.97265625 C-10.08198245 61.05289091 -17.08284994 64.47703721 -26.01953125 65.03125 C-34.03006195 64.7359309 -40.90647811 61.5692991 -46.5625 55.9375 C-52.90699729 47.851376 -54.69913985 41.23545702 -53.5625 30.9375 C-49.59239683 18.01839379 -38.2565274 6.32997979 -26.5625 -0.0625 C-18.28881479 -3.41977254 -8.18599414 -3.77624009 0 0 Z " fill="#FFFFFF" transform="translate(420.5625,106.0625)"/>
<path d="M0 0 C6.81096282 4.03905935 10.81578343 9.06031184 12.96484375 16.69140625 C14.79926415 25.40869327 12.55691655 33.13618604 7.7421875 40.546875 C0.39863427 50.12025209 -7.98612048 58.07870683 -19.5625 61.9375 C-27.48515808 62.67308926 -34.71154257 62.25958053 -41.5625 57.9375 C-48.43466608 51.75716272 -51.84796241 45.82820996 -52.5859375 36.6171875 C-52.4832197 24.87311891 -44.9949656 15.71806594 -37.00488281 7.83691406 C-26.72054959 -1.76225372 -13.41353123 -6.0512171 0 0 Z " fill="#FFFFFF" transform="translate(465.5625,155.0625)"/>
</svg>
